{"title":"Kung Fury (2015) WEBRip 1080p x265-HEVC AC3 [Napisy PL/Eng]","uid":12409618,"size":1770915705,"categoryP":"other","categoryS":"other","magnet":"?xt=urn:btih:9e989271bf359e700d52f95fa4c361cf59d7a3b5&amp;dn=Kung+Fury+%282015%29+WEBRip+1080p+x265-HEVC+AC3+%5BNapisy+PL%2FEng%5D&amp;tr=udp%3A%2F%2Ftracker.openbittorrent.com%3A80&amp;tr=udp%3A%2F%2Fopen.demonii.com%3A1337&amp;tr=udp%3A%2F%2Ftracker.coppersurfer.tk%3A6969&amp;tr=udp%3A%2F%2Fexodus.desync.com%3A6969","seeders":0,"leechers":1,"uploader":"Xichael","files":7,"time":1442139175,"description":"In 1985, Kung Fury, the toughest martial artist cop in Miami, goes back in time to kill the worst criminal of all time - kung fuhrer Hitler.\n &lt;a href=&quot;\nhttp://www.imdb.com/title/tt3472226/&quot; rel=&quot;nofollow&quot; target=&quot;_NEW&quot;&gt;\nhttp://www.imdb.com/title/tt3472226/&lt;/a&gt;\n\n\nKung Fury (2015)-alE13.mkv\nFormat : Matroska\nFormat version : Version 4 / Version 2\nFile size : 1.65 GiB\nDuration : 30mn 20s\nOverall bit rate : 7 772 Kbps\nMovie name : Starship Rising 3D (2014)-alE13\nEncoded date : UTC 2015-06-03 09:04:41\nWriting application : mkvmerge v7.9.0 ('Birds') 64bit\nWriting library : libebml v1.3.1 + libmatroska v1.4.2\nDURATION : 00:28:40.320000000\nNUMBER_OF_FRAMES : 249\nNUMBER_OF_BYTES : 7478\n_STATISTICS_WRITING_APP : mkvmerge v7.9.0 ('Birds') 64bit\n_STATISTICS_WRITING_DATE_UT : 2015-06-03 09:04:41\n_STATISTICS_TAGS : BPS DURATION NUMBER_OF_FRAMES NUMBER_OF_BYTES\n\nVideo\nID : 1\nFormat : HEVC\nFormat/Info : High Efficiency Video Coding\nCodec ID : V_MPEGH/ISO/HEVC\nDuration : 30mn 20s\nBit rate : 7 361 Kbps\nWidth : 1 920 pixels\nHeight : 1 072 pixels\nDisplay aspect ratio : 16:9\nFrame rate mode : Constant\nFrame rate : 25.000 fps\nBits/(Pixel*Frame) : 0.143\nStream size : 1.56 GiB (95%)\nLanguage : English\nDefault : Yes\nForced : No\n\nAudio\nID : 2\nFormat : AC-3\nFormat/Info : Audio Coding 3\nMode extension : CM (complete main)\nFormat settings, Endianness : Big\nCodec ID : A_AC3\nDuration : 30mn 20s\nBit rate mode : Constant\nBit rate : 256 Kbps\nChannel(s) : 2 channels\nChannel positions : Front: L R\nSampling rate : 48.0 KHz\nBit depth : 16 bits\nCompression mode : Lossy\nStream size : 55.6 MiB (3%)\nTitle : Kung Fury (2015)-alE13_AC3\nLanguage : English\nDefault : No\nForced : No\n\nText #1\nID : 3\nFormat : VobSub\nMuxing mode : zlib\nCodec ID : S_VOBSUB\nCodec ID/Info : The same subtitle format used on DVDs\nTitle : Kung Fury (2015)-alE13_color\nLanguage : Polish\nDefault : Yes\nForced : No\n\nText #2\nID : 4\nFormat : UTF-8\nCodec ID : S_TEXT/UTF8\nCodec ID/Info : UTF-8 Plain Text\nTitle : Kung Fury (2015)-alE13\nLanguage : Polish\nDefault : No\nForced : No\n\nText #3\nID : 5\nFormat : UTF-8\nCodec ID : S_TEXT/UTF8\nCodec ID/Info : UTF-8 Plain Text\nTitle : Kung Fury (2015)-alE13\nLanguage : English\nDefault : No\nForced : No","torrent":{"xt":"urn:btih:9e989271bf359e700d52f95fa4c361cf59d7a3b5","amp;dn":"Kung+Fury+%282015%29+WEBRip+1080p+x265-HEVC+AC3+%5BNapisy+PL%2FEng%5D","amp;tr":["udp%3A%2F%2Ftracker.openbittorrent.com%3A80","udp%3A%2F%2Fopen.demonii.com%3A1337","udp%3A%2F%2Ftracker.coppersurfer.tk%3A6969","udp%3A%2F%2Fexodus.desync.com%3A6969"],"infoHash":"9e989271bf359e700d52f95fa4c361cf59d7a3b5","infoHashBuffer":{"type":"Buffer","data":[158,152,146,113,191,53,158,112,13,82,249,95,164,195,97,207,89,215,163,181]},"announce":[],"urlList":[]}}